<svg xmlns="http://www.w3.org/2000/svg" viewBox="0 0 160 500"><path fill="#F9D68F" d="M144.1 246.9c0-.8-.7-2.3-.8-5.3-1.7-19.2 0-33.4-1.2-41.6-.6-3.8-3.3-12.6-4.5-15.9-1.2-3.4-2.1-17-2.2-23.3-.1-7.1-1.5-21.7-2.3-25.5-1.4-25.5-12.9-26.5-18-27.8-4.5-1.1-18.2-6-22-9.3 0 0-3.2-6.6-2.3-23.7-4.6-.2-7.6-.2-11.7.1-4.1-.3-7.1-.3-11.7-.1.9 17.1-2.3 23.7-2.3 23.7-3.9 3.3-17.6 8.1-22 9.3-5.2 1.3-16.6 2.3-18 27.8-.9 3.8-2.3 18.4-2.3 25.5 0 6.4-1 20-2.2 23.3-1.2 3.3-3.9 12-4.5 15.9-1.2 8.2.4 22.4-1.2 41.6-.1 2.9-.8 4.5-.8 5.3 0 .6.7 4 .8 4.3-.2 5.3-.5 12.3-.5 12.3.3 2.5 4.7 14.1 5.5 14.8 4.7 4 7.5 9.6 9.5 10.1 1.4-2-3.2-9.2-3.9-10-.5-.6-1.7-4.5-2-6.3 0 0 .6-3.1 1.1-5.5 1.1 2.1 3.1 5.8 3.3 7.3.5 3.2 1.7 6.8 4.5 6.8-.4-3-.5-7-.8-7.9-1.2-3.8-.9-7.2-1.1-9.4-.2-2.7-6.4-11.9-6.6-15.8-.1-1.1.3-3.2.8-5.8.7-3 1.9-6.8 2.7-9.8 1.8-7 4.5-19.5 5.1-21.9 2.4-9.6 1.2-18.2 2.2-23.2.8-4.1 6-27.5 7.8-37.3-2 10.2 5.6 14.5 5.7 14.6 1.7 7.2 2 16.4 3.1 22.8 1.1 6.9-1.3 15-3.7 21.3-5 12.7-6 20.7-9.2 32.9 0 .1-.1.2-.1.3-1.9 7.1-2.2 15.9-2.2 26.2 0 8 1.7 14 2.7 22 1 7.8 10.9 40.6 11.5 47 .7 7.1.5 13.4-.1 20.7-.6 7.5-1.1 15.2-.9 22.6.5 13.7 4.4 26.8 8 40.1 7.1 26.2 5.6 33 5.7 33.7-.2 2.8-1.4 7.1-1.3 7.8 0 .6 1.1 5 1 5.9-2 5.3-4.2 8.7-6.4 10.9-.4.5-.5 2.9-.5 2.9.6.3 1 .6 1.4.8h43.7c.4-.2.9-.5 1.4-.8 0 0-.1-2.4-.5-2.9-2.2-2.2-4.4-5.5-6.4-10.9-.1-.8 1-5.2 1-5.9 0-.7-1.1-5-1.3-7.8.1-.7-1.4-7.5 5.7-33.7 3.6-13.3 7.6-26.4 8-40.1.2-7.4-.3-15.2-.9-22.6-.6-7.3-.8-13.6-.1-20.7.6-6.4 10.5-39.2 11.5-47 1.1-8.1 2.7-14.1 2.7-22 0-10.3-.4-19.1-2.2-26.2 0-.1-.1-.2-.1-.3-3.2-12.2-4.2-20.2-9.2-32.9-2.5-6.3-4.8-14.4-3.7-21.3 1-6.4 1.4-15.6 3.1-22.8 0-.1 7.7-4.4 5.7-14.6 1.8 9.7 7 33.2 7.8 37.3 1 5-.2 13.6 2.2 23.2.6 2.5 3.3 15 5.1 21.9.8 3 2 6.7 2.7 9.8.5 2.6.8 4.8.8 5.8-.2 3.9-6.4 13.1-6.6 15.8-.2 2.2.1 5.6-1.1 9.4-.3 1-.4 4.9-.8 7.9 2.7 0 3.9-3.5 4.5-6.8.3-1.5 2.2-5.2 3.3-7.3.5 2.3 1.1 5.5 1.1 5.5-.3 1.7-1.5 5.7-2 6.3-.7.9-5.3 8-3.9 10 2-.4 4.9-6 9.5-10.1.9-.8 5.2-12.4 5.5-14.8 0 0-.3-7-.5-12.3.2-.3.9-3.7.9-4.3zM80.6 386c.3 15.2 3.5 31.2 2.6 50-.3 6.8-1.4 15.4-1.6 16.7-.4 1.9-1.1 2.9-1.1 4 0 .4.8 3.4 1.1 4.1-.3 1.6-2.5 13.9-2.7 14.7-.1-.8-2.3-13.1-2.7-14.7.3-.7 1.1-3.6 1.1-4.1 0-1.1-.8-2.1-1.1-4-.3-1.3-1.3-9.9-1.6-16.7-.9-18.8 2.3-34.7 2.6-50 .3-13.4-3.4-17.4-3.1-30.7.1-2.4 1.6-12.2 1.4-15.3-.8-11.2-1.7-28.6-1.3-32.1.8-6 2-15 2.1-22.2.1-9-1.2-16.4-1-18.7.1.1 1.6.3 1.8.3v-.1c.9.1 1.7.1 1.9-.1.2.2 1 .2 1.9.1v.1c.2-.1 1.7-.2 1.8-.3.2 2.2-1.1 9.6-1 18.7.1 7.2 1.3 16.2 2.1 22.2.5 3.5-.5 20.9-1.3 32.1-.2 3.1 1.3 12.8 1.4 15.3.2 13.3-3.5 17.2-3.3 30.7z"/><g fill="#DD9F2E"><path opacity=".15" d="M76.2 460.8c.3-.7 1.1-3.6 1.1-4.1 0-1.1-.8-2.1-1.1-4-.3-1.3-1.3-9.9-1.6-16.7-.9-18.8 2.3-34.7 2.6-50 .3-13.4-3.4-17.4-3.1-30.7.1-2.4 1.6-12.2 1.4-15.3-.8-11.2-1.7-28.6-1.3-32.1.8-6 2-15 2.1-22.2.1-9-1.2-16.4-1-18.7.1.1 1.6.3 1.8.3v-.1c.9.1 1.7.1 1.9-.1V263c-15.3-16.8-40.5-18-41.6-17.9 9.8 3.6 32.3 16.9 33.3 21.7 2.2 10 1.9 26.1 1.9 26.1-1.9-4.2-4.7-8.5-5.3-6.2-.7 2.3 1.9 14.5 3 22 1.9 12.3-.3 32.3-.6 35 0 .2-2.4 5.8-2.5 5.8.7 3.4.6 8.7.4 10.7 0 .3-4.9 5.2-7.5 3.8-1.2-.7-5.9-7.2-6.1-8.3-.4-2.2 1.8-13.9 1.7-14.2-1.2-4.6-7.2-25.9-8.6-28.6-6.3-12.4-9-27.6-10.8-40 .5 5.6 1.7 10.6 2.5 16.7 1 7.8 10.9 40.6 11.5 47 .7 7.1.5 13.4-.1 20.7-.6 7.5-1.1 15.2-.9 22.6.5 13.7 4.4 26.8 8 40.1 7.1 26.2 5.6 33 5.7 33.7-.2 2.8-1.4 7.1-1.3 7.8 0 .6 1.1 5 1 5.9 0 .1-.1.2-.1.3 1-1.6 4.7-8.5 5.9-10 .5.5 3 3.7 4.2 5.6.9 2.2 3.2 12.5 3.2 12.5-.3.2-2 1.8-2 1.8s-.7 1.9-1.3 2.2l-2.8-1c-.8.3-2.4 1.2-2.4 1.2l-2.2-1-2.5 1.2c-.1 0-2.2-1.3-2.2-1.3l-1.8 1.1-1.2-1.1s1-2.9 1-3.1c-.1.1-.2.2-.2.3-.6.9-1.3 1.6-1.9 2.3-.4.5-.5 2.9-.5 2.9.6.3 1 .6 1.4.8h21.9c1-.7 1.4-1.8 1.3-2.8-.1-1.2-.8-2.6-1.3-3.8-.3 0-2.6-13.1-3-14.7zm-8.4-16c-2.3 0-11.2-29.7-13.8-43.7-2.7-14.4-2.3-32.4.3-34.5 4.6-3.7 14.9 9.3 14.9 9.5 1.7 20.6-1 68.7-1.4 68.7z"/><path opacity=".15" d="M78.9 475.5c-.5 1.2-1.2 2.6-1.3 3.8-.1 1 .3 2.1 1.3 2.8h21.9c.4-.2.9-.5 1.4-.8 0 0-.1-2.4-.5-2.9-.6-.6-1.3-1.4-1.9-2.3-.1-.1-.2-.2-.2-.3 0 .2 1 3.1 1 3.1l-1.2 1.1-1.8-1.1-2.2 1.3-2.5-1.2-2.2 1s-1.6-.9-2.4-1.2l-2.8 1c-.6-.3-1.3-2.2-1.3-2.2s-1.7-1.6-2-1.8c0 0 2.3-10.3 3.2-12.5 1.2-1.8 3.7-5 4.2-5.6 1.2 1.5 4.9 8.4 5.9 10 0-.1-.1-.2-.1-.3-.1-.8 1-5.2 1-5.9 0-.7-1.1-5-1.3-7.8.1-.7-1.4-7.5 5.7-33.7 3.6-13.3 7.6-26.4 8-40.1.2-7.4-.3-15.2-.9-22.6-.6-7.3-.8-13.6-.1-20.7.6-6.4 10.5-39.2 11.5-47 .8-6.2 2-11.2 2.5-16.7-1.8 12.4-4.5 27.6-10.9 40-1.4 2.7-7.3 24-8.6 28.6-.1.3 2 12 1.7 14.2-.2 1.1-4.9 7.7-6.1 8.3-2.7 1.4-7.5-3.5-7.5-3.8-.2-2-.3-7.2.4-10.7-.1 0-2.5-5.6-2.5-5.8-.3-2.7-2.5-22.7-.6-35 1.2-7.5 3.7-19.7 3-22-.7-2.3-3.4 2-5.4 6.2 0 0-.3-16.1 1.9-26.1 1-4.7 23.5-18.1 33.3-21.7-1.1-.1-26.3 1.1-41.6 17.9v4.1c.2.2 1 .2 1.9.1v.1c.2-.1 1.7-.2 1.8-.3.2 2.2-1.1 9.6-1 18.7.1 7.2 1.3 16.2 2.1 22.2.5 3.5-.5 20.9-1.3 32.1-.2 3.1 1.3 12.8 1.4 15.3.3 13.3-3.4 17.2-3.1 30.7.3 15.2 3.5 31.2 2.6 50-.3 6.8-1.4 15.4-1.6 16.7-.4 1.9-1.1 2.9-1.1 4 0 .4.8 3.4 1.1 4.1-.5 1.6-2.8 14.7-2.8 14.7zm9.7-99.5c0-.2 10.2-13.1 14.9-9.5 2.6 2.1 3 20.1.3 34.5-2.6 14-11.5 43.7-13.8 43.7-.4.1-3.2-48-1.4-68.7zM60.3 234.1c-.4-.7-3.3-5.6-3.3-5.6-.2 1.2.4 8.1.4 8.1l-10.3.4 28.5 2.7c-8-.7-15.3-5.6-15.3-5.6zm37.2 0c.4-.7 3.3-5.6 3.3-5.6.2 1.2-.4 8.1-.4 8.1l10.3.3-28.5 2.7c8-.6 15.3-5.5 15.3-5.5z"/><path opacity=".2" d="M78.9 210.9c1.8-2.3.9-5.2 0-6.1v-.1.1c-.9.9-1.8 3.8 0 6.1l-.1.1c.1 0 .1 0 .1-.1v.1-.1z"/><path opacity=".15" d="M29.1 288.4c1.4-2-3.2-9.2-3.9-10-.5-.6-1.7-4.5-2-6.3 0 0 .6-3.1 1.1-5.5 1.1 2.1 3.1 5.8 3.3 7.3.5 3.2 1.7 6.8 4.5 6.8-.4-3-.5-7-.8-7.9-1.2-3.8-.9-7.2-1.1-9.4-.2-2.7-6.4-11.9-6.6-15.8-.1-1.1.3-3.2.8-5.8.7-3 1.9-6.8 2.7-9.8 1.8-7 4.5-19.5 5.1-21.9 2.4-9.6 1.2-18.2 2.2-23.2.7-3.5 4.6-21.2 6.9-32.4.2-3.3.2-5.5.1-8.8 5.1-11.4 2.2-11.8.4-14.1-1.8 17.6-8.7 46.9-9.8 49.5-1.2 2.6-3.9 6.2-3.9 6.2l1.9 10.3c-1.7 7.9-8.2 45.6-8.4 47.3l3 15.5-3 7.3-2.1-.5-1.3 1-1.3-.5-.8 1.3-2.2-5.3c.3 2.5 4.7 14.1 5.5 14.8 4.8 3.9 7.7 9.5 9.7 9.9zm99.6 0c-1.4-2 3.2-9.2 3.9-10 .5-.6 1.7-4.5 2-6.3 0 0-.6-3.1-1.1-5.5-1.1 2.1-3.1 5.8-3.3 7.3-.5 3.2-1.7 6.8-4.5 6.8.4-3 .5-7 .8-7.9 1.2-3.8.9-7.2 1.1-9.4.2-2.7 6.4-11.9 6.6-15.8.1-1.1-.3-3.2-.8-5.8-.7-3-1.9-6.8-2.7-9.8-1.8-7-4.5-19.5-5.1-21.9-2.4-9.6-1.2-18.2-2.2-23.2-.7-3.5-4.6-21.2-6.9-32.4-.2-3.3-.2-5.5-.1-8.8-5.1-11.4-2.2-11.8-.4-14.1 1.8 17.6 8.7 46.9 9.8 49.5 1.2 2.6 3.9 6.2 3.9 6.2l-2 10.3c1.7 7.9 8.2 45.6 8.4 47.3l-3 15.5 3 7.3 2.1-.5 1.3 1 1.3-.5.8 1.3 2.2-5.3c-.3 2.5-4.7 14.1-5.5 14.8-4.7 3.9-7.6 9.5-9.6 9.9zM73.3 112.2s-17.8-5.6-18.8-6.3l15.4-5.5c-.1-1.2-2.3-20.9-2.6-22.8.1 2.5 0 4.8 0 6.9-.4 9.8-2.4 13.9-2.4 13.9-3.4 2.9-14.3 7-20 8.7-.5.2-.9.3-1.1.3 7.2.1 29.5 4.8 29.5 4.8zm11.2 0s17.8-5.6 18.8-6.3l-15.4-5.5c.1-1.2 2.3-20.9 2.6-22.8-.1 2.5 0 4.8 0 6.9.4 9.8 2.4 13.9 2.4 13.9 3.4 2.9 14.3 7 20 8.7.5.2.9.3 1.1.3-7.3.1-29.5 4.8-29.5 4.8z"/></g><path fill="#FFF" d="M117.6 232.7c-7.7 2.2-25.1 5.8-38.7 5.9-13.6-.2-31-3.8-38.7-5.9 0 0-1.5 4-3 12.5.7.7 27.1 9.4 37.7 21.5.6.5 2.7 1 4 .8 1.2.2 3.3-.3 4-.8 10.6-12 37-20.8 37.7-21.5-1.6-8.5-3-12.5-3-12.5zm-.7-86.3s-3.9-8.4-20.7-8c-5.2.1-17 2.7-17.4 2.8-.4-.1-12.2-2.7-17.4-2.8-16.8-.4-20.7 8-20.7 8-1.1 8.4 2 14.1 7.2 17.6 0 0 .4 4.1.5 4.5 2.3 0 28.8-.1 30.4-.1 1.6 0 28.1.1 30.4.1.1-.4.5-4.5.5-4.5 5.2-3.5 8.3-9.3 7.2-17.6z"/><path opacity=".15" d="M46.7 163.1l.2.2.2.2c.4.3.6.5.8.6 0 0 .1 0 .1.1 0 0 .4 4.1.5 4.5h.3c1 6.2 1.4 13.2 2.2 18.3.3 1.8.3 3.7.2 5.7.5-6.2-1-19.8.6-20.5 6.1-2.8 14.6-6.6 14.6-9.8-2.2-.1-21 1.6-23.8-18.1 0 0-1 1-1.7 2.3-.4 2.9-.2 6.4.4 8.4 1 3.2 2.9 6 5.4 8.1zm64.3 0l-.2.2-.2.2c-.4.3-.6.5-.8.6 0 0-.1 0-.1.1 0 0-.4 4.1-.5 4.5h-.3c-1 6.2-1.4 13.2-2.2 18.3-.3 1.8-.3 3.7-.2 5.7-.5-6.2 1-19.8-.6-20.5-6.1-2.8-14.6-6.6-14.6-9.8 2.2-.1 21 1.6 23.8-18.1 0 0 1 1 1.7 2.3.4 2.9.2 6.4-.4 8.4-.9 3.2-2.8 6-5.4 8.1z" fill="#DD9F2E"/><path opacity=".25" fill="#DD9F2E" d="M78.9 74.8H67.2c.1 1.4.1 2.7.1 4 2.9 3.3 6.6 7.5 7.5 8 1.4.8 3.8.9 4.1.9.3 0 2.6 0 4.1-.9.9-.5 4.6-4.7 7.5-8 0-1.3.1-2.6.1-4H78.9z"/><path fill="#F9D68F" d="M97.9 52.2s-1.5-13.1-3.1-15.5C91.2 31.5 79.7 31 79 30.9c-.7 0-12.3.5-15.8 5.8-1.6 2.4-3.1 15.5-3.1 15.5l-2 1 .9 10.7 2 2.3s1.8 4.9 3 7.5c1.2 2.6 8.5 7.4 9.8 8.1 1.3.7 5 .5 5.2.5.2 0 4 .2 5.2-.5 1.3-.7 8.6-5.5 9.8-8.1 1.2-2.6 3-7.5 3-7.5l2-2.3.9-10.7-2-1z"/><path opacity=".25" fill="#DD9F2E" d="M78.9 68.3l3.2-1.6h-6.4l3.2 1.6v.1-.1.1"/><path opacity=".25" fill="#DD9F2E" d="M97.9 52.2s-1.5-13.1-3.1-15.5C91.2 31.5 79.7 31 79 30.9c-.7 0-12.3.5-15.8 5.8-1.6 2.4-3.1 15.5-3.1 15.5l-2 1 .9 10.7 2 2.3s1.8 4.9 3 7.5c.5 1.1 1.9 2.5 3.6 3.8 0 0-2.3-2.1-3-4.8-.3-1.3.2-10.5-.3-11.3-2.4-3.8-1.7-4.8-1.7-4.8l1.4-1.3 8 .6 3 1.4-.5-3.2s-2.7-2.4-3.2-2.6c-.8-.2-7.3-1-7.3-1s-.8-1.9-.8-2.4c6-12.1 15.1-12.2 15.7-12.2.6 0 9.7.1 15.7 12.2 0 .5-.8 2.4-.8 2.4s-6.5.8-7.3 1c-.5.1-3.2 2.6-3.2 2.6l-.5 3.2 3-1.4 8-.6 1.4 1.3s.6 1-1.7 4.8c-.5.7 0 9.9-.3 11.3-.7 2.7-3 4.8-3 4.8 1.7-1.4 3.1-2.8 3.6-3.8 1.2-2.6 3-7.5 3-7.5l2-2.3.9-10.7-1.8-1z"/><path fill="#855B24" d="M102.5 34.7c-5.2-8.6-19-12.5-23.6-12.6-4.5.1-18.4 4-23.6 12.6-2.2 3.6-8.5 30.2-7.9 33.1.6 2.5 4.3 25.4.7 38 5.7-1.9 13.9-5.3 16.7-7.6 0 0 3.4-4.5 2.6-20.7-4.8-5.4-5.8-11.8-6-13.4-.3-2.7-.2-14.7.4-15.9 6.5-12.6 16-12.5 17-12.3 1-.2 10.5-.3 17 12.3.6 1.2.7 13.2.4 15.9-.2 1.6-1.2 7.9-6 13.4-.7 16.3 2.6 20.7 2.6 20.7 2.8 2.4 11 5.8 16.7 7.6-3.6-12.7.2-35.5.7-38 .8-2.9-5.5-29.5-7.7-33.1z"/></svg>