<svg xmlns="http://www.w3.org/2000/svg" viewBox="0 0 200 500"><path fill="#F9D68F" d="M179.3 250.2c0-.3.6-4.7.5-5-.1-1-1.3-2.7-1.4-6.9-.5-10.1-1.4-29.8-2.2-36.7-.5-4.2-.9-13.9-1.5-15.3-1.4-3.5-5.1-11.1-6.5-14.5-1.5-3.5-1.4-14.8-1.9-21.6-.5-7.5-2.1-14.8-3.3-18.8 1.6-13.8-2.2-34.3-20.3-36.7-2-.3-20.7-9.4-25.5-13.4 0 0-1.9-6.3-1.5-19.7-4.9-.2-11.5-.5-15.9-.2-4.4-.3-11-.1-15.9.2.5 13.4-1.5 19.7-1.5 19.7-4.8 4.1-23.6 13.2-25.5 13.4C38.8 97 35 117.5 36.6 131.4c-1.2 3.9-2.8 11.3-3.3 18.8-.5 6.7-.4 18.1-1.9 21.6-1.5 3.4-5.1 11-6.5 14.5-.6 1.4-1 11.1-1.5 15.3-.8 6.9-1.7 26.5-2.2 36.7-.1 4.2-1.3 5.9-1.4 6.9 0 .3.5 4.7.5 5-.6 5.8-1.3 13.3-1.3 13.3.2 2.7 4.8 17.5 5.7 18.4 4.8 4.7 9.9 12.3 12 12.9 1.7-2.1-3.6-11.8-4.3-12.8-.5-.7-1.5-5-1.7-6.9 0 0 .9-3.4 1.6-5.9 1.1 2.4 2.9 6.5 3.1 8.2.4 3.6 1 8.7 4.4 8.5-.2-3.3.4-8.6.2-9.7-1-4.2-1.1-7.7-1-10.2.2-3.8-6.1-15.2-6.1-17.7 0-2.6 2.9-14.5 5-20.8 2.4-7.2 8.1-21.2 8.9-23.7 2.2-7.1 0-17.6 1.5-22.9 1.4-5 8.3-29.7 9.3-34.5 1.7 10.4 7.8 26.7 8.5 32.8-.1.1.2 9.9-.1 19.9-.1 4.4-.7 8.8-.7 9.6l.9 4.3c.1 1-5.6 18.5-6.3 21.5 0 0-2.7 22.3-3.4 27.5-1.6 12.6-1.9 28-1.5 33 .3 3.4 3.7 25 4.2 28.6 0 0 5.3 18 6 23.6.3 2.1-.5 13-.5 13 0 1.6 1 9.8 1 9.8.4 1.9-4.9 29.2-4.6 32.2.8 7.3 3.1 23.1 6.4 35.3.6 2.2 3.1 17.7 3.6 21.1-.2 3.1-2 8-1.9 8.8 0 .7 2 5.6 1.9 6.5-2.1 6-5.9 12-7.9 13-.4.6.6 3.7.6 3.7.6.4 1.2.7 1.6.9h25.2c1-.7 1.6-1.8 1.5-3.3-.1-1.9-1.6-2.5-2.2-3.9 0 0-3-16.5-3.4-18.3.3-.8 1.2-4.1 1.2-4.6-.1-1.2-.9-2.4-1.4-4.5-1.1-5.2-.9-11-.7-16.4.4-12.2 5.7-33.5 6.3-43 .3-4.6-4-24.9-4.2-27-.2-1.7 2-11.2 2-11.2-.2-4.7 1-21.6.6-28.7-.3-5.5 3.4-22.4 4-25.6.6-3.4 2.2-32 3.5-34.8l2.1-1.4 2.1 1.4c1.2 2.8 2.8 31.5 3.5 34.8.6 3.2 4.3 20.1 4 25.6-.4 7.1.8 24.1.6 28.7 0 0 2.2 9.5 2 11.2-.2 2.1-4.5 22.4-4.2 27 .7 9.6 5.9 30.8 6.3 43 .2 5.4.4 11.2-.7 16.4-.5 2.1-1.3 3.3-1.4 4.5 0 .5.9 3.8 1.2 4.6-.4 1.8-3.4 18.3-3.4 18.3-.6 1.4-2.1 2-2.2 3.9-.1 1.5.5 2.5 1.5 3.3h25.2c.5-.2 1-.5 1.6-.9 0 0 1-3.1.6-3.7-2-1-5.8-7-7.9-13-.1-.9 1.8-5.8 1.9-6.5.1-.8-1.8-5.6-1.9-8.8.6-3.4 3-18.8 3.6-21.1 3.3-12.2 5.6-28 6.4-35.3.3-2.9-5-30.3-4.6-32.2 0 0 1-8.2 1-9.8 0 0-.8-10.9-.5-13 .7-5.5 6-23.6 6-23.6.5-3.6 3.9-25.2 4.2-28.6.4-5 .2-20.4-1.5-33-.7-5.2-3.4-27.5-3.4-27.5-.7-3-6.4-20.5-6.3-21.5l.9-4.3c0-.8-.6-5.2-.7-9.6-.2-10 .1-19.8-.1-19.9.7-6.1 6.8-22.4 8.5-32.8.9 4.8 7.9 29.5 9.3 34.5 1.4 5.3-.7 15.8 1.5 22.9.8 2.6 6.5 16.5 8.9 23.7 2.1 6.3 5.1 18.3 5 20.8 0 2.5-6.3 13.9-6.1 17.7.1 2.4 0 6-1 10.2-.3 1.1.4 6.4.2 9.7 3.4.2 4-5 4.4-8.5.2-1.7 2-5.8 3.1-8.2.8 2.5 1.6 5.9 1.6 5.9-.2 1.9-1.2 6.3-1.7 6.9-.7 1-6 10.6-4.3 12.8 2.1-.6 7.2-8.2 12-12.9.9-.9 5.5-15.7 5.7-18.4-.2 0-.9-7.6-1.5-13.3z"/><g fill="#DD9F2E"><path opacity=".15" d="M59.2 323.6s5.3 18 6 23.6c.3 2.1-.5 13-.5 13 0 1.6 1 9.8 1 9.8.4 1.9-4.9 29.2-4.6 32.2.8 7.3 3.1 23.1 6.4 35.3.6 2.2 3.1 17.7 3.6 21.1-.2 3.1-2 8-1.9 8.8 0 .7 2 5.6 1.9 6.5-.2.6-.5 1.2-.7 1.8 1.2-1.5 6.7-7.1 8.1-8.5.5.5 3.4 3.5 4.7 5.2 1 2.1 4 13.4 4 13.4-.4.2-3 1.1-3 1.1s-1.7 1.8-2.4 2.1l-3.1-1c-.9.3-2.8 1.1-2.8 1.1l-2.3-1.3-2.8 1.3c-.1 0-2.4-1.4-2.4-1.4l-2.3.9-1.8-1.1s1.3-2.6 1.3-2.8c-.9 1.1-1.7 1.9-2.3 2.3-.4.6.6 3.7.6 3.7.6.4 1.2.7 1.6.9h25.2c1-.7 1.6-1.8 1.5-3.3-.1-1.9-1.6-2.5-2.2-3.9 0 0-3-16.5-3.4-18.3.3-.8 1.2-4.1 1.2-4.6-.1-1.2-.9-2.4-1.4-4.5-1.1-5.2-.9-11-.7-16.4.4-12.2 5.7-33.5 6.3-43 .3-4.6-4-24.9-4.2-27-.2-1.7 2-11.2 2-11.2-.2-4.7 1-21.6.6-28.7-.3-5.5 3.4-22.4 4-25.6.6-3.4 2.2-32 3.5-34.8 0 0-9.1-19.9-40.8-11.3-.2 1.3-.3 2.4-.4 3.2v.4c6.8-.5 26.6 2.1 28.5 3.9 7.7 7.2 3.7 37 3.4 36.5-2.2-4-4.2-6.7-6.1-10.2-.8 2.2 2.2 18 3.5 25.1 2.1 11.5-.3 30.4-.6 32.9 0 .1-4 5.1-4.1 5.1.8 3.2 2.2 7.6 1.6 11.4 0 .3-5.9 3.1-8.6 1.3-1.9-1.3-4.8-6.3-4.9-8.4-.2-3.3 1.2-10.4 1.1-10.6-1.4-4.4-7.8-21.5-8.6-24.3-.7-2.4-2.9-14.6-3-15.5-2.5-13.3-2.5-30.8-2.8-40.3-.9 10.8-1 21.7-.7 25.8-.1 3.1 3.3 24.7 3.8 28.3zm11.1 46.2c.2-.3 11.3 13 11.4 13.2 1.2 6.7-4.2 64.6-4.4 64.3-7.7-11.4-12.3-25-13.5-38.3-1.2-12.9-1-28.1 6.5-39.2zM109.3 330.6c-.4 7.1.8 24.1.6 28.7 0 0 2.2 9.5 2 11.2-.2 2.1-4.5 22.4-4.2 27 .7 9.6 5.9 30.8 6.3 43 .2 5.4.4 11.2-.7 16.4-.5 2.1-1.3 3.3-1.4 4.5 0 .5.9 3.8 1.2 4.6-.4 1.8-3.4 18.3-3.4 18.3-.6 1.4-2.1 2-2.2 3.9-.1 1.5.5 2.5 1.5 3.3h25.2c.5-.2 1-.5 1.6-.9 0 0 1-3.1.6-3.7-.6-.3-1.4-1.1-2.3-2.3 0 .2 1.3 2.8 1.3 2.8l-1.8 1.1-2.3-.9-2.4 1.4-2.8-1.3-2.3 1.3s-1.9-.8-2.8-1.1l-3.1 1c-.7-.3-2.4-2.1-2.4-2.1s-2.7-.8-3.1-1.1c0 0 3-11.3 4-13.4 1.3-1.7 4.2-4.7 4.7-5.2 1.4 1.4 7 7 8.1 8.5-.2-.6-.5-1.2-.7-1.8-.1-.9 1.8-5.8 1.9-6.5.1-.8-1.8-5.6-1.9-8.8.6-3.4 3-18.8 3.6-21.1 3.3-12.2 5.6-28 6.4-35.3.3-2.9-5-30.3-4.6-32.2 0 0 1-8.2 1-9.8 0 0-.8-10.9-.5-13 .7-5.5 6-23.6 6-23.6.5-3.6 3.9-25.2 4.2-28.6.3-4.1.2-15-.7-25.8-.3 9.5-.3 27-2.8 40.3-.2 1-2.3 13.1-3 15.5-.8 2.8-7.3 19.9-8.6 24.3-.1.3 1.3 7.3 1.1 10.6-.1 2.1-3.1 7.2-4.9 8.4-2.7 1.8-8.5-1-8.6-1.3-.6-3.8.8-8.2 1.6-11.4-.2 0-4.1-4.9-4.1-5.1-.3-2.5-2.8-21.4-.6-32.9 1.3-7.1 4.3-22.9 3.5-25.1-1.9 3.5-3.9 6.2-6.1 10.2-.3.5-4.3-29.3 3.4-36.5 1.9-1.8 21.7-4.4 28.5-3.9v-.4c-.1-.7-.2-1.8-.4-3.2-31.7-8.6-40.8 11.3-40.8 11.3 1.2 2.8 2.8 31.5 3.5 34.8.3 3.5 4 20.4 3.7 25.9zm8.6 52.3c0-.2 11.2-13.4 11.4-13.2 7.5 11.1 7.6 26.3 6.5 39.2-1.2 13.4-5.8 26.9-13.4 38.3-.2.3-5.6-57.6-4.5-64.3zM80.9 227.1c-.5-.7-4.3-6.6-4.7-7.2-.6-.9-6.7-4.7-7-5.3.6 1 5.4 6.2 5.4 6.2.7 1.3 1.6 9.8 1.6 9.8l-16.4 4 36.1 2.9c-11.8-4.3-15-10.4-15-10.4zM79.5 193c-1.5-1.1-5.1-3.7-5.1-3.7 5.1 5.8 6 12.9 8 21.3v-6s-2.3-10.8-2.9-11.6zM118.6 227.1c.5-.7 4.3-6.6 4.7-7.2.6-.9 6.7-4.7 7-5.3-.6 1-5.4 6.2-5.4 6.2-.7 1.3-1.6 9.8-1.6 9.8l16.4 4-36.1 2.9c11.9-4.3 15-10.4 15-10.4zM120 193c1.5-1.1 5.1-3.7 5.1-3.7-5.1 5.8-6 12.9-8 21.3v-6s2.3-10.8 2.9-11.6z"/><path opacity=".2" d="M99.8 197.7c-1.8.1-2.3 1.9-2.3 1.9.4-.2 1.2-.4 2.3-.4 1 0 1.9.2 2.3.4-.1 0-.5-1.8-2.3-1.9z"/><g><path opacity=".15" d="M67.7 143.3c-1.5-.9-8.2-9.1-8.2-9.1s-2.4-11.4-1.3-19c-1.1 7.5-17 12.9-19.4 13 0 0-1.9-1.8-2.6-3.4 0 2.3.1 4.5.3 6.6.4 3.3 2 8.9 2 8.9s6.6-7.6 14.6-6.5l1.9 8.8c-.9 11.8-7.7 30-9.6 32.5-.2.2-7.2 3.1-7.2 3.1s-5.8-5.6-6.9-6.5c-.7 1.6-1.9 4.1-3.1 6.7 1.3-.5 2.5-1 3.8-1.6.2-.1 8.3 20.4 8.3 20.4-2.2 8.4-11.1 45.4-11.3 47.2l3.8 16.4-4.9 9.2-1.8-1.1-2.1 1.3-1.9-.9-.9 1.2-2.3-7.1c.2 2.7 4.8 17.5 5.7 18.4 4.8 4.7 9.9 12.3 12 12.9 1.7-2.1-3.6-11.8-4.3-12.8-.5-.7-1.5-5-1.7-6.9 0 0 .9-3.4 1.6-5.9 1.1 2.4 2.9 6.5 3.1 8.2.4 3.6 1 8.7 4.4 8.5-.2-3.3.4-8.6.2-9.7-1-4.2-1.1-7.7-1-10.2.2-3.8-6.1-15.2-6.1-17.7 0-2.6 2.9-14.5 5-20.8 2.4-7.2 8.1-21.2 8.9-23.7 2.2-7.1 0-17.6 1.5-22.9 1.4-5 8.3-29.7 9.3-34.5 1.7 10.4 7.8 26.7 8.5 32.8-.1.1.2 9.9-.1 19.9.4-3.3 1.8-21.1 1.8-21.1l-1-14.7s2-10.6 2.2-10.9c.6-1 16.9-3.5 20.5-6.3-2.9 1.7-16.6.3-21.7-2.7zM131.8 143.3c1.5-.9 8.2-9.1 8.2-9.1s2.4-11.4 1.3-19c1.1 7.5 17 12.9 19.4 13 0 0 1.9-1.8 2.6-3.4 0 2.3-.1 4.5-.3 6.6-.4 3.3-2 8.9-2 8.9s-6.6-7.6-14.6-6.5l-1.9 8.8c.9 11.8 7.7 30 9.6 32.5.2.2 7.2 3.1 7.2 3.1s5.8-5.6 6.9-6.5c.7 1.6 1.9 4.1 3.1 6.7-1.3-.5-2.5-1-3.8-1.6-.2-.1-8.3 20.4-8.3 20.4 2.2 8.4 11.1 45.4 11.3 47.2l-3.8 16.4 4.9 9.2 1.8-1.1 2.1 1.3 1.9-.9.9 1.2 2.3-7.1c-.2 2.7-4.8 17.5-5.7 18.4-4.8 4.7-9.9 12.3-12 12.9-1.7-2.1 3.6-11.8 4.3-12.8.5-.7 1.5-5 1.7-6.9 0 0-.8-3.4-1.6-5.9-1.1 2.4-2.9 6.5-3.1 8.2-.4 3.6-1 8.7-4.4 8.5.2-3.3-.4-8.6-.2-9.7 1-4.2 1.1-7.7 1-10.2-.2-3.8 6.1-15.2 6.1-17.7 0-2.6-2.9-14.5-5-20.8-2.4-7.2-8.1-21.2-8.9-23.7-2.2-7.1 0-17.6-1.5-22.9-1.4-5-8.3-29.7-9.3-34.5-1.7 10.4-7.8 26.7-8.5 32.8.1.1-.2 9.9.1 19.9-.4-3.3-1.8-21.1-1.8-21.1l1-14.7s-2-10.6-2.2-10.9c-.6-1-16.9-3.5-20.5-6.3 2.9 1.7 16.7.3 21.7-2.7z"/></g><g><path opacity=".15" d="M72 92l12.8-10.7c-.2-1.3-.6-17.5-.9-19.6.5 13.4-1.5 19.7-1.5 19.7-4.8 4.1-23.6 13.2-25.5 13.4 9.2.3 36.9 3.2 36.9 3.2S73.2 92.8 72 92zM127.6 92l-12.8-10.7c.2-1.3.6-17.5.9-19.6-.5 13.4 1.5 19.7 1.5 19.7 4.8 4.1 23.6 13.2 25.5 13.4-9.2.3-36.9 3.2-36.9 3.2s20.6-5.2 21.8-6z"/></g></g><path fill="#FFF" d="M139.7 234.4c-.4-1.6-1.9-7.3-1.9-7.3-8.1 2.3-23.6 4-38 4.2-14.4-.2-29.9-1.9-38-4.2 0 0-1.5 5.7-1.9 7.3-.7 3-2.4 17-3.8 27.6 6.8-.2 25.2-.2 32.2 1.8.8.2 2.1 5.7 9.2 7.6.1 0 1.3.2 2.3.3 1.1-.1 2.3-.2 2.3-.3 7.1-2 8.4-7.4 9.2-7.6 7-2 25.4-2 32.2-1.8-1.4-10.6-3.2-24.6-3.8-27.6z"/><g fill="#DD9F2E"><path opacity=".15" d="M85.9 254c-8.1 7-22.4 7.2-29.8 8 6.8-.2 25.2-.2 32.2 1.8-1.5-3-2.4-9.8-2.4-9.8zM113.7 254c8.1 7 22.4 7.2 29.8 8-6.8-.2-25.2-.2-32.2 1.8 1.4-3 2.4-9.8 2.4-9.8z"/></g><g><path opacity=".25" fill="#DD9F2E" d="M83.9 61.7L93 75.3h13.5l9.2-13.6"/><path fill="#F9D68F" d="M119.9 37.8V23.3l-8.2-6.6-11.9-1.4-12 1.4-8.1 6.6v14.5l-2.1 1 1 11.4 2.1 2.4.9 8 11.7 9.1h13l11.6-9.1.9-8 2.2-2.4 1-11.4"/><path opacity=".25" fill="#DD9F2E" d="M96 54.4l3.8 1.8 3.7-1.8"/><path opacity=".25" fill="#DD9F2E" d="M111.7 16.7l-11.9-1.4-12 1.4-8.1 6.6v14.5l1 14.8.9 8 7.1 5.5-3.6-4.5-.1-14.2-2-4.4.9-.9 9.9-.2 4 2.6-1.1-4.7-3.7-3-8.1.9-1.6-2.1-.4-3.9 4.9-7.2 12-1.1 11.9 1.1 5 7.2-.4 3.9h-.1l-1.5 2.1-8.1-.9-3.8 3-1 4.7 3.9-2.6 10 .2.8.9-2 4.4-.1 14.2-3.5 4.5 7-5.5.9-8 1.1-14.8V23.3"/><path fill="#855B24" d="M115.7 15.3l-15.9-3.8-15.9 3.8-6.3 7.6v6.9l2.1 8 .4 6.4 2-7.6v-5.4l5.3-7.8h24.8l5.2 7.8.1 5.4 1.9 7.6.5-6.4 2.1-8v-6.9"/></g></svg>